# xmcd CD database file generated by Grip 3.6.2
# 
# Track frame offsets:
#       150
#       12985
#       26350
#       38123
#       48798
#       60323
#       72443
#       85563
#       99440
#       113463
#       126710
#       138838
#       151740
#       165355
#       177630
#       189588
# 
# Disc length: 2674 seconds
# 
# Revision: 2
# Processed by: cddbd v1.5.2PL0 Copyright (c) Steve Scherf et al.
# Submitted via: Grip 3.6.2
# 
DISCID=c10a7010
DTITLE=Celia Cruz - El Merengue
DYEAR=1992
DGENRE=Merengue
TTITLE0=Muñecas del cha  cha cha
TTITLE1=El Merengue
TTITLE2=Y mi negro está cansao
TTITLE3=Oya diosa y fe
TTITLE4=contestación de el marinero
TTITLE5=Mi soncito
TTITLE6=Yerbero moderno
TTITLE7=Pa' la paloma
TTITLE8=Goza negra
TTITLE9=Oyela Gozala
TTITLE10=Sandungueate
TTITLE11=Plegaria a laroye
TTITLE12=Nuevo ritmo omelenko
TTITLE13=Juancito Trucupey
TTITLE14=Burndanga
TTITLE15=Rock and Roll
EXTD=
EXTT0=
EXTT1=
EXTT2=
EXTT3=
EXTT4=
EXTT5=
EXTT6=
EXTT7=
EXTT8=
EXTT9=
EXTT10=
EXTT11=
EXTT12=
EXTT13=
EXTT14=
EXTT15=
PLAYORDER=
